<svg xmlns="http://www.w3.org/2000/svg" width="50.558" height="69.136" viewBox="0 0 50.558 69.136"><defs><style>.a{fill:#fcda5f;}.b{fill:#504741;}.c{fill:#008c44;}</style></defs><g transform="translate(-107.114 -158.011)"><path class="a" d="M154.741,171.045a6.52,6.52,0,0,0-1.271-.5l-20.434-5.623a6.581,6.581,0,0,0-8.091,4.6h0l-12.672,46.057a6.545,6.545,0,0,0-.19,2.319,6.583,6.583,0,0,0,1.271.5l20.434,5.623a6.581,6.581,0,0,0,8.089-4.6l12.672-46.056A6.507,6.507,0,0,0,154.741,171.045Z"/><path class="b" d="M135.546,225.667a8.089,8.089,0,0,1-2.132-.29l-20.432-5.623a8,8,0,0,1-5.582-9.819l12.672-46.056a7.987,7.987,0,0,1,9.819-5.579l20.434,5.622a7.986,7.986,0,0,1,5.582,9.817L143.234,219.8a7.994,7.994,0,0,1-7.687,5.87Zm-1.385-3a5.173,5.173,0,0,0,6.36-3.616h0l12.671-46.059a5.172,5.172,0,0,0-3.614-6.361h0l-20.434-5.622a5.173,5.173,0,0,0-6.36,3.615v0L110.109,210.68a5.181,5.181,0,0,0,3.617,6.361Z"/><path class="b" d="M130.225,159.848l19.02,5.233h0l-.459,1.668a4.261,4.261,0,0,1-5.238,2.977l-10.8-2.973a4.26,4.26,0,0,1-2.978-5.237l.459-1.668Z"/><path class="b" d="M156.626,169.15a16.823,16.823,0,0,0-6.3-5.229L129.892,158.3a7.987,7.987,0,0,0-9.819,5.579L107.4,209.934a8,8,0,0,0,2.9,8.5,7.891,7.891,0,0,0,4.155,2.8l20.432,5.623a7.984,7.984,0,0,0,9.819-5.58L157.38,175.22A7.936,7.936,0,0,0,156.626,169.15ZM110.11,210.681l12.673-46.054a5.174,5.174,0,0,1,6.358-3.619h0l20.434,5.622a5.173,5.173,0,0,1,3.616,6.36h0L140.52,219.049a5.173,5.173,0,0,1-6.359,3.617h0l-20.434-5.623a5.086,5.086,0,0,1-1.447-.681c-.039-.059-.09-.111-.127-.172-.058,0-.105-.011-.162-.013a5.175,5.175,0,0,1-1.879-5.5Z"/><path class="c" d="M125.085,176.82l3.69-.622,2.15,10.355-3.557.679c-1.018,1.278.492,7.916,1.775,8.372.122-.038,3.493-.682,3.493-.682l2.217,10.424s-3.608.683-3.725.7C120.949,207.69,114.935,179,125.085,176.82ZM126.9,178.9l-1.336.256c-6.963,1.5-1.9,25.688,5.183,24.545l1.267-.238-1.225-5.759-1.339.25c-4.128.778-6.9-12.069-2.669-13.03l1.315-.253Zm6.588,11.276,3.079,1.925a3.631,3.631,0,0,0-1.157-5Zm3.992-6.4a7.539,7.539,0,0,1,2.4,10.389v0l-1.9-1.183a5.307,5.307,0,0,0-1.694-7.312Zm2.1-3.363a11.511,11.511,0,0,1,3.667,15.855l-1.943-1.212a9.215,9.215,0,0,0-2.933-12.7l0,0Z"/></g></svg>