<svg xmlns="http://www.w3.org/2000/svg" width="17.229" height="17.229" viewBox="0 0 17.229 17.229"><defs><style>.a{fill:#008c44;}</style></defs><path class="a" d="M13.64,0H3.589A3.59,3.59,0,0,0,0,3.589V13.64a3.59,3.59,0,0,0,3.589,3.589H13.64a3.589,3.589,0,0,0,3.589-3.589V3.589A3.589,3.589,0,0,0,13.64,0Zm-7.9,13.64H3.589v-7.9H5.743ZM4.666,4.833A1.266,1.266,0,1,1,5.922,3.566,1.262,1.262,0,0,1,4.666,4.833Zm9.691,8.807H12.2V9.617c0-2.418-2.872-2.235-2.872,0V13.64H7.179v-7.9H9.332V7.01a2.73,2.73,0,0,1,5.025,1.777Z"/></svg>