<svg xmlns="http://www.w3.org/2000/svg" width="8.733" height="16.614" viewBox="0 0 8.733 16.614"><defs><style>.a{fill:#008c44;}</style></defs><path class="a" d="M547.525,318.152h2.506a.444.444,0,0,0,.442-.392l.277-2.34a.444.444,0,0,0-.442-.5h-2.8v-1.957c0-.887.246-1.492,1.518-1.492h1.179a.446.446,0,0,0,.444-.446v-1.972a.445.445,0,0,0-.445-.446H548.29a3.694,3.694,0,0,0-3.943,4.052v2.261h-1.881a.444.444,0,0,0-.445.446l.01,2.339a.444.444,0,0,0,.444.444h1.885l-.013,7.072h3.166Z" transform="translate(-542.02 -308.611)"/></svg>