<svg xmlns="http://www.w3.org/2000/svg" width="17.87" height="17.869" viewBox="0 0 17.87 17.869"><defs><style>.a{fill:#008c44;}</style></defs><g transform="translate(0 0)"><path class="a" d="M503.683,308.779H496.46a5.33,5.33,0,0,0-5.323,5.323v7.223a5.33,5.33,0,0,0,5.323,5.323h7.223a5.33,5.33,0,0,0,5.323-5.323V314.1A5.33,5.33,0,0,0,503.683,308.779Zm3.525,12.546a3.525,3.525,0,0,1-3.525,3.525H496.46a3.525,3.525,0,0,1-3.525-3.525V314.1a3.526,3.526,0,0,1,3.525-3.525h7.223a3.525,3.525,0,0,1,3.525,3.525v7.223Z" transform="translate(-491.137 -308.779)"/><path class="a" d="M500.193,313.213a4.622,4.622,0,1,0,4.622,4.622A4.627,4.627,0,0,0,500.193,313.213Zm0,7.446a2.824,2.824,0,1,1,2.824-2.824A2.824,2.824,0,0,1,500.193,320.659Z" transform="translate(-491.258 -308.9)"/><circle class="a" cx="1.107" cy="1.107" r="1.107" transform="translate(12.458 3.24)"/></g></svg>