<svg xmlns="http://www.w3.org/2000/svg" width="20.329" height="14.385" viewBox="0 0 20.329 14.385"><defs><style>.a{fill:#008c44;}</style></defs><path class="a" d="M598.355,310.739H586.47a4.222,4.222,0,0,0-4.222,4.222V320.9a4.222,4.222,0,0,0,4.222,4.222h11.885a4.223,4.223,0,0,0,4.222-4.222v-5.941A4.223,4.223,0,0,0,598.355,310.739Zm-2.855,7.482-5.559,2.651a.223.223,0,0,1-.319-.2V315.2a.223.223,0,0,1,.324-.2l5.559,2.816A.224.224,0,0,1,595.5,318.221Z" transform="translate(-582.248 -310.739)"/></svg>